<svg width="24" height="24" viewBox="0 0 24 24" fill="none" xmlns="http://www.w3.org/2000/svg">
<path d="M13.4142 3.41428L12.7071 4.12138V4.12138L13.4142 3.41428ZM10.5858 3.41428L9.87868 2.70717V2.70717L10.5858 3.41428ZM13 23.0001L13 3.00006L11 3.00006L11 23.0001H13ZM12.7071 4.12138L17.2929 8.70717L18.7071 7.29296L14.1213 2.70717L12.7071 4.12138ZM6.70711 8.70717L11.2929 4.12138L9.87868 2.70717L5.29289 7.29296L6.70711 8.70717ZM14.1213 2.70717C13.808 2.39383 13.5033 2.08618 13.219 1.86925C12.9116 1.63472 12.5137 1.41428 12 1.41428V3.41428C11.9005 3.41428 11.8764 3.3605 12.0059 3.4593C12.1584 3.5757 12.3538 3.76806 12.7071 4.12138L14.1213 2.70717ZM11.2929 4.12138C11.6462 3.76806 11.8416 3.5757 11.9941 3.4593C12.1236 3.3605 12.0995 3.41428 12 3.41428V1.41428C11.4863 1.41428 11.0884 1.63472 10.781 1.86925C10.4967 2.08618 10.192 2.39383 9.87868 2.70717L11.2929 4.12138Z" fill="black"/>
</svg>
