<svg width="24" height="24" viewBox="0 0 24 24" fill="none" xmlns="http://www.w3.org/2000/svg">
<path d="M20.5858 13.4142L21.2929 14.1213V14.1213L20.5858 13.4142ZM20.5858 10.5858L19.8787 11.2929V11.2929L20.5858 10.5858ZM1 13H21V11H1V13ZM19.8787 12.7071L15.2929 17.2929L16.7071 18.7071L21.2929 14.1213L19.8787 12.7071ZM15.2929 6.70711L19.8787 11.2929L21.2929 9.87868L16.7071 5.29289L15.2929 6.70711ZM21.2929 14.1213C21.6062 13.808 21.9139 13.5033 22.1308 13.219C22.3653 12.9116 22.5858 12.5137 22.5858 12H20.5858C20.5858 11.9005 20.6396 11.8764 20.5408 12.0059C20.4244 12.1584 20.232 12.3538 19.8787 12.7071L21.2929 14.1213ZM19.8787 11.2929C20.232 11.6462 20.4244 11.8416 20.5408 11.9941C20.6396 12.1236 20.5858 12.0995 20.5858 12H22.5858C22.5858 11.4863 22.3653 11.0884 22.1308 10.781C21.9139 10.4967 21.6062 10.192 21.2929 9.87868L19.8787 11.2929Z" fill="black"/>
</svg>
