<svg width="24" height="24" viewBox="0 0 24 24" fill="none" xmlns="http://www.w3.org/2000/svg">
<path d="M23.0001 11H3.00009V13H23.0001V11ZM2.7072 14.1213L7.29299 18.7071L8.7072 17.2929L4.12141 12.7071L2.7072 14.1213ZM7.29299 5.29289L2.7072 9.87868L4.12141 11.2929L8.7072 6.70711L7.29299 5.29289ZM4.12141 12.7071C3.76809 12.3538 3.57573 12.1584 3.45933 12.0059C3.36053 11.8764 3.41431 11.9005 3.41431 12H1.41431C1.41431 12.5137 1.63475 12.9116 1.86928 13.219C2.08621 13.5033 2.39386 13.808 2.7072 14.1213L4.12141 12.7071ZM2.7072 9.87868C2.39386 10.192 2.08621 10.4967 1.86929 10.781C1.63475 11.0884 1.41431 11.4863 1.41431 12H3.41431C3.41431 12.0995 3.36053 12.1236 3.45933 11.9941C3.57573 11.8416 3.76809 11.6462 4.12141 11.2929L2.7072 9.87868Z" fill="black"/>
</svg>
