<svg width="24" height="24" viewBox="0 0 24 24" fill="none" xmlns="http://www.w3.org/2000/svg">
<path d="M13.4142 20.5857L14.1213 21.2928V21.2928L13.4142 20.5857ZM10.5858 20.5857L11.2929 19.8786V19.8786L10.5858 20.5857ZM11 0.999939L11 20.9999H13L13 0.999939L11 0.999939ZM14.1213 21.2928L18.7071 16.707L17.2929 15.2928L12.7071 19.8786L14.1213 21.2928ZM5.29289 16.707L9.87868 21.2928L11.2929 19.8786L6.70711 15.2928L5.29289 16.707ZM12.7071 19.8786C12.3538 20.2319 12.1584 20.4243 12.0059 20.5407C11.8764 20.6395 11.9005 20.5857 12 20.5857V22.5857C12.5137 22.5857 12.9116 22.3653 13.219 22.1307C13.5033 21.9138 13.808 21.6062 14.1213 21.2928L12.7071 19.8786ZM9.87868 21.2928C10.192 21.6062 10.4967 21.9138 10.781 22.1307C11.0884 22.3653 11.4863 22.5857 12 22.5857V20.5857C12.0995 20.5857 12.1236 20.6395 11.9941 20.5407C11.8416 20.4243 11.6462 20.2319 11.2929 19.8786L9.87868 21.2928Z" fill="black"/>
</svg>
