<svg width="24" height="24" viewBox="0 0 24 24" fill="none" xmlns="http://www.w3.org/2000/svg">
<path d="M12 22C17.5228 22 22 17.5228 22 12C22 6.47715 17.5228 2 12 2C6.47715 2 2 6.47715 2 12C2 17.5228 6.47715 22 12 22ZM12 22L12.3491 19.5565C12.4385 18.9304 12.9304 18.4385 13.5565 18.3491C14.9586 18.1488 16 16.948 16 15.5317V15.2995C16 14.1981 17.1124 13.445 18.135 13.854L21 15M4 18L6.14143 17.5717C7.62027 17.2759 8.45882 15.7012 7.87878 14.3091C7.22287 12.7349 8.37945 11 10.0848 11H11C12.6569 11 14 9.65685 14 8V7.90983C14 6.73936 13.3387 5.66935 12.2918 5.1459L8 3" stroke="black" stroke-width="2" stroke-linejoin="round"/>
</svg>
