<svg width="24" height="24" viewBox="0 0 24 24" fill="none" xmlns="http://www.w3.org/2000/svg">
<path d="M2 16H1V17.477L2.37139 16.9285L2 16ZM2 4L1.62861 3.07152L1 3.32297V4H2ZM12 16L11.6286 16.9285V16.9285L12 16ZM12 4L11.6286 4.92848V4.92848L12 4ZM20.2733 4.69068L19.9019 3.7622L20.2733 4.69068ZM18.9474 5.18443L19.2256 6.14495L18.9474 5.18443ZM13.7267 4.69068L14.0981 3.7622V3.7622L13.7267 4.69068ZM15.0526 5.18443L14.7744 6.14495L15.0526 5.18443ZM12.9736 16.3894L13.345 15.461V15.461L12.9736 16.3894ZM15.8041 17.3578L15.6332 18.3431L15.8041 17.3578ZM21.0264 16.3894L21.3978 17.3179L21.0264 16.3894ZM18.1959 17.3578L18.3668 18.3431L18.1959 17.3578ZM6.79566 14.5422L6.76647 13.5426L6.79566 14.5422ZM7.20434 14.5422L7.23353 13.5426L7.20434 14.5422ZM21.9682 5.22694L21 5.47703L21.9682 5.22694ZM20.8726 4.48518L21 5.47703L20.8726 4.48518ZM7.20434 2.54221L7.23353 1.54264L7.20434 2.54221ZM6.79566 2.54221L6.76647 1.54264L6.79566 2.54221ZM21.9471 15.6438L22.8943 15.9646L21.9471 15.6438ZM21.6496 16.0832L21 15.323L21.6496 16.0832ZM3 23V1H1V23H3ZM23 14.9514V5.85972H21V14.9514H23ZM1 4V16H3V4H1ZM11.6286 16.9285L12.6022 17.3179L13.345 15.461L12.3714 15.0715L11.6286 16.9285ZM14.0981 3.7622L12.3714 3.07152L11.6286 4.92848L13.3553 5.61916L14.0981 3.7622ZM19.9019 3.7622C19.2209 4.03459 18.9425 4.14475 18.6692 4.22391L19.2256 6.14495C19.6157 6.03197 20.0001 5.877 20.6447 5.61916L19.9019 3.7622ZM13.3553 5.61916C13.9999 5.877 14.3843 6.03197 14.7744 6.14495L15.3308 4.22391C15.0575 4.14475 14.7791 4.03459 14.0981 3.7622L13.3553 5.61916ZM18.6692 4.22391C17.5788 4.53972 16.4212 4.53972 15.3308 4.22391L14.7744 6.14495C16.2283 6.56604 17.7717 6.56604 19.2256 6.14495L18.6692 4.22391ZM12.6022 17.3179C13.9685 17.8644 14.7832 18.1958 15.6332 18.3431L15.9749 16.3726C15.3794 16.2693 14.789 16.0386 13.345 15.461L12.6022 17.3179ZM20.655 15.461C19.211 16.0386 18.6206 16.2693 18.0251 16.3726L18.3668 18.3431C19.2168 18.1958 20.0315 17.8644 21.3978 17.3179L20.655 15.461ZM15.6332 18.3431C16.5377 18.5 17.4623 18.5 18.3668 18.3431L18.0251 16.3726C17.3468 16.4902 16.6532 16.4902 15.9749 16.3726L15.6332 18.3431ZM2.37139 16.9285C4.80752 15.954 5.80159 15.5717 6.82485 15.5418L6.76647 13.5426C5.30601 13.5853 3.93088 14.1506 1.62861 15.0715L2.37139 16.9285ZM12.3714 15.0715C10.0691 14.1506 8.69399 13.5853 7.23353 13.5426L7.17515 15.5418C8.19841 15.5717 9.19248 15.954 11.6286 16.9285L12.3714 15.0715ZM6.82485 15.5418C6.94159 15.5384 7.05841 15.5384 7.17515 15.5418L7.23353 13.5426C7.07788 13.5381 6.92212 13.5381 6.76647 13.5426L6.82485 15.5418ZM23 5.85972C23 5.5919 23.0085 5.25583 22.9364 4.97684L21 5.47703C20.9893 5.4355 20.9938 5.42523 20.9968 5.50158C20.9998 5.57748 21 5.68166 21 5.85972H23ZM20.6447 5.61916C20.81 5.55303 20.9068 5.51451 20.9784 5.48911C21.0504 5.46356 21.0425 5.47157 21 5.47703L20.7452 3.49332C20.4594 3.53003 20.1506 3.66274 19.9019 3.7622L20.6447 5.61916ZM22.9364 4.97684C22.6843 4.00076 21.7451 3.36491 20.7452 3.49332L21 5.47703V5.47703L22.9364 4.97684ZM12.3714 3.07152C10.0691 2.15062 8.69399 1.58529 7.23353 1.54264L7.17515 3.54179C8.19841 3.57167 9.19248 3.95403 11.6286 4.92848L12.3714 3.07152ZM2.37139 4.92848C4.80752 3.95403 5.80159 3.57167 6.82485 3.54179L6.76647 1.54264C5.30601 1.58529 3.93088 2.15062 1.62861 3.07152L2.37139 4.92848ZM7.23353 1.54264C7.07788 1.53809 6.92212 1.53809 6.76647 1.54264L6.82485 3.54179C6.94159 3.53838 7.05841 3.53838 7.17515 3.54179L7.23353 1.54264ZM21 14.9514C21 15.142 20.9996 15.2409 20.9952 15.3126C20.9915 15.3733 20.9874 15.3603 21 15.323L22.8943 15.9646C23.0127 15.6149 23 15.2363 23 14.9514H21ZM21.3978 17.3179C21.6624 17.2121 22.0186 17.0833 22.2993 16.8435L21 15.323C21.03 15.2974 21.0436 15.2964 20.9886 15.3224C20.9237 15.353 20.832 15.3902 20.655 15.461L21.3978 17.3179ZM21 15.323V15.323L22.2993 16.8435C22.5731 16.6094 22.7787 16.3058 22.8943 15.9646L21 15.323Z" fill="black"/>
</svg>
