<svg width="24" height="24" viewBox="0 0 24 24" fill="none" xmlns="http://www.w3.org/2000/svg">
<path d="M5.00244 6.47555L5.62713 7.25642L5.62713 7.25642L5.00244 6.47555ZM7.00244 4.87555L6.37774 4.09468V4.09468L7.00244 4.87555ZM16.9976 4.87555L17.6223 4.09468V4.09468L16.9976 4.87555ZM18.9976 6.47555L19.6223 5.69468V5.69468L18.9976 6.47555ZM3.17157 20.8284L3.87868 20.1213L3.87868 20.1213L3.17157 20.8284ZM21.6052 9.06725L20.7039 9.50043V9.50043L21.6052 9.06725ZM2.39479 9.06725L1.49348 8.63406V8.63406L2.39479 9.06725ZM14.4501 12.5006L13.4701 12.6993C13.5664 13.1745 13.9898 13.5122 14.4746 13.5003L14.4501 12.5006ZM9.54989 12.5006L9.52542 13.5003C10.0102 13.5122 10.4336 13.1745 10.5299 12.6993L9.54989 12.5006ZM21 12.7225V13.8775H23V12.7225H21ZM14 21H10V23H14V21ZM3 13.8775V12.7225H1V13.8775H3ZM5.62713 7.25642L7.62713 5.65642L6.37774 4.09468L4.37774 5.69468L5.62713 7.25642ZM16.3729 5.65642L18.3729 7.25642L19.6223 5.69468L17.6223 4.09468L16.3729 5.65642ZM7.62713 5.65642C8.8446 4.68244 9.68883 4.00925 10.3999 3.56924C11.0878 3.14355 11.5535 3 12 3V1C11.0433 1 10.2085 1.33571 9.34744 1.86854C8.50956 2.38704 7.55656 3.15162 6.37774 4.09468L7.62713 5.65642ZM17.6223 4.09468C16.4434 3.15162 15.4904 2.38704 14.6526 1.86854C13.7915 1.33571 12.9567 1 12 1V3C12.4465 3 12.9122 3.14355 13.6001 3.56924C14.3112 4.00925 15.1554 4.68244 16.3729 5.65642L17.6223 4.09468ZM10 21C8.08611 21 6.75129 20.9979 5.74416 20.8625C4.76579 20.7309 4.2477 20.4903 3.87868 20.1213L2.46447 21.5355C3.26702 22.3381 4.27752 22.6833 5.47767 22.8446C6.64904 23.0021 8.14265 23 10 23V21ZM1 13.8775C1 15.7362 0.998008 17.2578 1.15489 18.4575C1.31422 19.6759 1.65469 20.7258 2.46447 21.5355L3.87868 20.1213C3.51688 19.7595 3.27156 19.2195 3.138 18.1982C3.00199 17.1581 3 15.79 3 13.8775H1ZM21 13.8775C21 15.79 20.998 17.1581 20.862 18.1982C20.7284 19.2195 20.4831 19.7595 20.1213 20.1213L21.5355 21.5355C22.3453 20.7258 22.6858 19.6759 22.8451 18.4575C23.002 17.2578 23 15.7362 23 13.8775H21ZM14 23C15.8573 23 17.351 23.0021 18.5223 22.8446C19.7225 22.6833 20.733 22.3381 21.5355 21.5355L20.1213 20.1213C19.7523 20.4903 19.2342 20.7309 18.2558 20.8625C17.2487 20.9979 15.9139 21 14 21V23ZM23 12.7225C23 10.9293 23.0231 9.70894 22.5065 8.63406L20.7039 9.50043C20.9769 10.0684 21 10.7372 21 12.7225H23ZM18.3729 7.25642C19.9231 8.49663 20.431 8.93251 20.7039 9.50043L22.5065 8.63406C21.9899 7.55918 21.0225 6.81485 19.6223 5.69468L18.3729 7.25642ZM3 12.7225C3 10.7372 3.02313 10.0684 3.29609 9.50043L1.49348 8.63406C0.976869 9.70894 1 10.9293 1 12.7225H3ZM4.37774 5.69468C2.97753 6.81485 2.0101 7.55917 1.49348 8.63406L3.29609 9.50043C3.56905 8.93251 4.07687 8.49663 5.62713 7.25642L4.37774 5.69468ZM9.5 15.5C8.94772 15.5 8.5 15.0523 8.5 14.5H6.5C6.5 16.1569 7.84315 17.5 9.5 17.5V15.5ZM14.5 15.5H9.5V17.5H14.5V15.5ZM15.5 14.5C15.5 15.0523 15.0523 15.5 14.5 15.5V17.5C16.1569 17.5 17.5 16.1569 17.5 14.5H15.5ZM14.5 13.5C15.0523 13.5 15.5 13.9477 15.5 14.5H17.5C17.5 12.8431 16.1569 11.5 14.5 11.5V13.5ZM14.4746 13.5003C14.483 13.5001 14.4915 13.5 14.5 13.5V11.5C14.4751 11.5 14.4504 11.5003 14.4256 11.5009L14.4746 13.5003ZM12 11.5C12.7247 11.5 13.3313 12.0149 13.4701 12.6993L15.4302 12.3019C15.1061 10.7035 13.6947 9.5 12 9.5V11.5ZM10.5299 12.6993C10.6687 12.0149 11.2753 11.5 12 11.5V9.5C10.3053 9.5 8.89387 10.7035 8.56982 12.3019L10.5299 12.6993ZM9.5 13.5C9.5085 13.5 9.51697 13.5001 9.52542 13.5003L9.57435 11.5009C9.54964 11.5003 9.52485 11.5 9.5 11.5V13.5ZM8.5 14.5C8.5 13.9477 8.94772 13.5 9.5 13.5V11.5C7.84315 11.5 6.5 12.8431 6.5 14.5H8.5Z" fill="black"/>
</svg>
