<svg width="24" height="24" viewBox="0 0 24 24" fill="none" xmlns="http://www.w3.org/2000/svg">
<path d="M1 1V18H3V1H1ZM6 23H23V21H6V23ZM1 18C1 18.9145 0.997876 19.701 1.08214 20.3278C1.17027 20.9833 1.36902 21.6117 1.87868 22.1213L3.29289 20.7071C3.21677 20.631 3.12262 20.495 3.06431 20.0613C3.00212 19.5988 3 18.9711 3 18H1ZM6 21C5.02892 21 4.40121 20.9979 3.9387 20.9357C3.50496 20.8774 3.36902 20.7832 3.29289 20.7071L1.87868 22.1213C2.38834 22.631 3.01669 22.8297 3.67221 22.9179C4.29896 23.0021 5.08546 23 6 23V21ZM11 9C11 9.55229 10.5523 10 10 10V12C11.6569 12 13 10.6569 13 9H11ZM10 10C9.44772 10 9 9.55229 9 9H7C7 10.6569 8.34315 12 10 12V10ZM9 9C9 8.44772 9.44772 8 10 8V6C8.34315 6 7 7.34315 7 9H9ZM10 8C10.5523 8 11 8.44772 11 9H13C13 7.34315 11.6569 6 10 6V8ZM17 14.5C17 15.0523 16.5523 15.5 16 15.5V17.5C17.6569 17.5 19 16.1569 19 14.5H17ZM16 15.5C15.4477 15.5 15 15.0523 15 14.5H13C13 16.1569 14.3431 17.5 16 17.5V15.5ZM15 14.5C15 13.9477 15.4477 13.5 16 13.5V11.5C14.3431 11.5 13 12.8431 13 14.5H15ZM16 13.5C16.5523 13.5 17 13.9477 17 14.5H19C19 12.8431 17.6569 11.5 16 11.5V13.5ZM7.79289 9.79289L4.79289 12.7929L6.20711 14.2071L9.20711 11.2071L7.79289 9.79289ZM10.7929 11.2071L13.7929 14.2071L15.2071 12.7929L12.2071 9.79289L10.7929 11.2071ZM18.2071 14.2071L22.2071 10.2071L20.7929 8.79289L16.7929 12.7929L18.2071 14.2071Z" fill="black"/>
</svg>
