<svg width="24" height="24" viewBox="0 0 24 24" fill="none" xmlns="http://www.w3.org/2000/svg">
<path d="M4.00383 12.023C3.04323 12.0736 2.56293 12.0989 2.2448 11.7576C1.92667 11.4164 1.97896 10.9923 2.08354 10.1443C2.40493 7.53821 3.65172 5.07696 5.61952 3.34659C6.29581 2.7519 6.63395 2.45456 7.12199 2.55516C7.61003 2.65577 7.82985 3.11917 8.2695 4.04598L10.0684 7.83811C8.62394 8.6013 7.78814 10.2056 7.86337 11.8198L4.00383 12.023Z" stroke="black" stroke-width="2" stroke-linejoin="round"/>
<path d="M14.1105 15.0945C12.7944 16.0412 10.9968 16.0586 9.66412 15.1352L7.48256 18.6409C6.99434 19.4254 6.75023 19.8177 6.88623 20.2547C7.02223 20.6916 7.3924 20.8528 8.13275 21.1752C10.5552 22.2301 13.3352 22.2454 15.7682 21.2182C16.5283 20.8973 16.9084 20.7369 17.0456 20.2912C17.1828 19.8456 16.9264 19.4491 16.4137 18.6561L14.1105 15.0945Z" stroke="black" stroke-width="2" stroke-linejoin="round"/>
<path d="M15.8538 11.8155L19.9989 12.0291C20.9583 12.0785 21.438 12.1032 21.7557 11.7622C22.0733 11.4211 22.0213 10.9977 21.9172 10.1509C21.5836 7.43726 20.246 4.88145 18.1416 3.14359C17.4639 2.5839 17.125 2.30405 16.648 2.41012C16.171 2.51618 15.9563 2.96871 15.527 3.87377L13.6469 7.8372C15.0909 8.59928 15.9274 10.202 15.8538 11.8155Z" stroke="black" stroke-width="2" stroke-linejoin="round"/>
</svg>
