<svg width="24" height="24" viewBox="0 0 24 24" fill="none" xmlns="http://www.w3.org/2000/svg">
<path d="M7 14.1068V14.1991C7 16.4092 8.55993 18.312 10.727 18.7454C11.5674 18.9135 12.4326 18.9135 13.273 18.7454C15.4401 18.312 17 16.4092 17 14.1991V14.1068C17 13.5342 16.4762 13.1048 15.9147 13.2171C13.3305 13.7339 10.6695 13.7339 8.08527 13.2171C7.52382 13.1048 7 13.5342 7 14.1068Z" stroke="black" stroke-width="2" stroke-linejoin="round"/>
<path d="M5 10L5.26393 9.44721C6.18524 7.5176 8.81476 7.5176 9.73607 9.44721L10 10" stroke="black" stroke-width="2" stroke-linejoin="round"/>
<path d="M14 10L14.2639 9.44721C15.1852 7.5176 17.8148 7.5176 18.7361 9.44721L19 10" stroke="black" stroke-width="2" stroke-linejoin="round"/>
<path d="M12 22C17.5228 22 22 17.5228 22 12C22 6.47715 17.5228 2 12 2C6.47715 2 2 6.47715 2 12C2 17.5228 6.47715 22 12 22Z" stroke="black" stroke-width="2" stroke-linejoin="round"/>
</svg>
