<svg width="24" height="24" viewBox="0 0 24 24" fill="none" xmlns="http://www.w3.org/2000/svg">
<path d="M3.4142 18.4143L2.7071 19.1214L3.4142 18.4143ZM3.41421 15.5859L4.12131 16.293L4.12131 16.293L3.41421 15.5859ZM20.5858 5.58588L21.2929 4.87877V4.87877L20.5858 5.58588ZM20.5858 8.4143L19.8787 7.7072V7.7072L20.5858 8.4143ZM23 16.0001L3 16.0001V18.0001L23 18.0001V16.0001ZM7.7071 21.293L4.12131 17.7072L2.7071 19.1214L6.29289 22.7072L7.7071 21.293ZM4.12131 16.293L7.7071 12.7072L6.29289 11.293L2.7071 14.8788L4.12131 16.293ZM4.12131 17.7072C3.76799 17.3539 3.57563 17.1585 3.45923 17.0059C3.36043 16.8765 3.41421 16.9006 3.41421 17.0001H1.41421C1.41421 17.5138 1.63465 17.9117 1.86918 18.2191C2.08611 18.5034 2.39375 18.8081 2.7071 19.1214L4.12131 17.7072ZM2.7071 14.8788C2.39376 15.1921 2.08611 15.4968 1.86918 15.7811C1.63465 16.0885 1.41421 16.4864 1.41421 17.0001H3.41421C3.41421 17.0995 3.36043 17.1237 3.45923 16.9942C3.57563 16.8417 3.76799 16.6463 4.12131 16.293L2.7071 14.8788ZM1 8.00009H21V6.00009H1V8.00009ZM21.2929 4.87877L17.7071 1.29298L16.2929 2.7072L19.8787 6.29298L21.2929 4.87877ZM17.7071 12.7072L21.2929 9.12141L19.8787 7.7072L16.2929 11.293L17.7071 12.7072ZM19.8787 6.29298C20.232 6.64631 20.4244 6.84167 20.5408 6.99424C20.6396 7.12373 20.5858 7.09954 20.5858 7.00009H22.5858C22.5858 6.48643 22.3653 6.08847 22.1308 5.78107C21.9139 5.49675 21.6062 5.19211 21.2929 4.87877L19.8787 6.29298ZM21.2929 9.12141C21.6062 8.80807 21.9139 8.50343 22.1308 8.21911C22.3653 7.91171 22.5858 7.51376 22.5858 7.00009H20.5858C20.5858 6.90064 20.6396 6.87646 20.5408 7.00595C20.4244 7.15851 20.232 7.35387 19.8787 7.7072L21.2929 9.12141Z" fill="black"/>
</svg>
