<svg width="24" height="24" viewBox="0 0 24 24" fill="none" xmlns="http://www.w3.org/2000/svg">
<path d="M12 22C17.5228 22 22 17.5228 22 12C22 6.47715 17.5228 2 12 2C6.47715 2 2 6.47715 2 12C2 17.5228 6.47715 22 12 22Z" stroke="black" stroke-width="2" stroke-linejoin="round"/>
<path d="M7 6L10 8L7 10" stroke="black" stroke-width="2" stroke-linejoin="round"/>
<path d="M17 6L14 8L17 10" stroke="black" stroke-width="2" stroke-linejoin="round"/>
<path d="M10.4311 16.3138L7 17V16.8009C7 14.5908 8.55993 12.688 10.727 12.2546C11.5674 12.0865 12.4326 12.0865 13.273 12.2546C15.4401 12.688 17 14.5908 17 16.8009V17L13.5689 16.3138C12.5332 16.1066 11.4668 16.1066 10.4311 16.3138Z" stroke="black" stroke-width="2" stroke-linejoin="round"/>
</svg>
