<svg width="24" height="24" viewBox="0 0 24 24" fill="none" xmlns="http://www.w3.org/2000/svg">
<path d="M16 6.5C16 8.98528 14.2091 11 12 11C9.79086 11 8 8.98528 8 6.5C8 4.01472 9.79086 2 12 2C14.2091 2 16 4.01472 16 6.5Z" stroke="black" stroke-width="2" stroke-linejoin="round"/>
<path d="M2.5 18.3333C4.07379 16.235 6.54369 15 9.16667 15H14.8333C17.4563 15 19.9262 16.235 21.5 18.3333L21.55 18.4C21.8421 18.7895 22 19.2632 22 19.75C22 20.9926 20.9926 22 19.75 22H4.25C3.00736 22 2 20.9926 2 19.75C2 19.2632 2.1579 18.7895 2.45 18.4L2.5 18.3333Z" stroke="black" stroke-width="2" stroke-linejoin="round"/>
</svg>
